<?xml version="1.0" encoding="UTF-8"?>
<svg xmlns="http://www.w3.org/2000/svg" viewBox="0 0 115.77 98.03">
  <defs>
    <style>
      .cls-1 {
        fill: #f2da62;
      }

      .cls-2 {
        fill: #ba181d;
      }
    </style>
  </defs>
  <g id="Lag_2" data-name="Lag 2">
    <g>
      <ellipse class="cls-2" cx="57.89" cy="55.48" rx="41.73" ry="33.62"/>
      <path class="cls-1" d="M.96,1.66c-2.44,.81,.33,13.06,2.18,27.68,1.09,8.62,5.26,44.76,8.09,59.16,.08,.41,.25,1.24,.75,2.2,2.64,5.08,10.49,5.8,20.97,6.55,16.85,1.2,27.27,.64,27.32,.63h0c10.99-.44,41.74-1.94,42.56-6.21,.03-.15,.19-1.2,.34-2.26,.45-3.26,.61-5.69,.69-6.33,.66-5.41,1.22-9.07,1.67-12.05,2-13.53,1.82-15.53,3.42-25.63,3.6-22.67,5.4-34,5.68-35.05,.58-2.12,2.04-7.27,.39-8.28-1.29-.79-4,1.27-6.98,3.55-2.91,2.21-4.36,3.32-4.41,4.71-.1,2.91,4.94,3.96,4.92,7.3,0,1.07-.55,2.11-2.05,3.82-6.32,7.22-11.34,11.36-15.98,15.34-3.59,3.09-4.27,3.78-5.73,3.85-1.08,.06-2.89-.2-11.2-8.58-4.34-4.38-3.22-3.68-6.5-6.88-4.11-4.01-5.33-4.59-5.38-6.16-.12-3.82,7.03-5.42,6.68-8.89-.02-.23-.09-.39-.19-.67-.89-2.53-2.93-2.56-5.25-4.8C60.64,2.43,60.38,.27,58.28,.02c-.37-.04-.64-.01-.84,.01-2.13,.26-2.78,2.08-5.22,4.62-2.61,2.72-4.5,3.37-4.87,5.85-.02,.15-.04,.26-.04,.42-.12,3.15,5.15,4.35,6.06,7.06,.74,2.2-1.64,4.65-10.24,12.85-9.56,9.11-10.86,10.15-13.03,10.04-.51-.03-.96-.11-1.37-.26-1.88-.68-5.58-5.13-5.58-5.13-1.3-1.59-2.92-2.89-4.37-4.35-8.66-8.78-12.12-9.73-11.76-12.46,.47-3.49,5.73-4.32,5.42-7.34-.11-1.03-2-2.57-5.82-5.61C1.66,1.77,1.35,1.53,.96,1.66Z"/>
    </g>
  </g>
  <g id="Lag_1" data-name="Lag 1">
    <rect class="cls-2" x="53.28" y="5.84" width="9.22" height="9.22" transform="translate(24.34 -37.87) rotate(45)"/>
  </g>
</svg>