<?xml version="1.0" encoding="UTF-8"?>
<svg id="Lag_1" data-name="Lag 1" xmlns="http://www.w3.org/2000/svg" viewBox="0 0 114.58 110.89">
  <defs>
    <style>
      .cls-1 {
        fill: #8f8684;
      }
    </style>
  </defs>
  <path class="cls-1" d="M.31,14.52c-.87,.15,.14,11.61,2.18,27.68,1.09,8.62,5.26,44.76,8.09,59.16,.08,.41,.25,1.24,.75,2.2,2.64,5.08,10.49,5.8,20.97,6.55,16.85,1.2,27.27,.64,27.32,.63h0c10.99-.44,41.74-1.94,42.56-6.21,.06-.29,.12-.61,.13-.63,0,0,0,0,0,0,.16-.76,.23-1.14,.32-2.45,.13-1.92,13.8-86.11,11.74-86.52-.64-.13-1.35,8.03-7.06,18.23-2.6,4.65-11.69,20.8-23.16,20.35-6.93-.27-11.86-6.5-14.91-10.45C55.01,24.6,58.21,.02,56.4,0c-1.8-.02,.3,24.25-13.93,43.7-3.17,4.33-7.2,9.67-13.03,10.04-11.87,.74-21.84-19.7-23.07-22.2C1.81,22.2,1.04,14.4,.31,14.52Z"/>
</svg>